<svg width="175" height="95" viewBox="0 0 175 95" fill="none" xmlns="http://www.w3.org/2000/svg">
<rect x="40.6464" y="47.4541" width="65.6188" height="65.6188" transform="rotate(-45 40.6464 47.4541)" fill="#D9D9D9" stroke="black" stroke-width="0.5"/>
<line x1="134" y1="46" x2="167" y2="46" stroke="black" stroke-width="2"/>
<path d="M166.293 84.7071C166.683 85.0976 167.317 85.0976 167.707 84.7071L174.071 78.3431C174.462 77.9526 174.462 77.3195 174.071 76.9289C173.681 76.5384 173.047 76.5384 172.657 76.9289L167 82.5858L161.343 76.9289C160.953 76.5384 160.319 76.5384 159.929 76.9289C159.538 77.3195 159.538 77.9526 159.929 78.3431L166.293 84.7071ZM166 47V84H168V47H166Z" fill="black"/>
<line x1="8" y1="46" x2="41" y2="46" stroke="black" stroke-width="2"/>
<path d="M7.29289 84.7071C7.68342 85.0976 8.31658 85.0976 8.70711 84.7071L15.0711 78.3431C15.4616 77.9526 15.4616 77.3195 15.0711 76.9289C14.6805 76.5384 14.0474 76.5384 13.6569 76.9289L8 82.5858L2.34315 76.9289C1.95262 76.5384 1.31946 76.5384 0.928932 76.9289C0.538408 77.3195 0.538408 77.9526 0.928932 78.3431L7.29289 84.7071ZM7 47L7 84H9L9 47H7Z" fill="black"/>
</svg>
