<svg width="145" height="144" viewBox="0 0 145 144" fill="none" xmlns="http://www.w3.org/2000/svg">
<path d="M106.707 23.7071C107.098 23.3166 107.098 22.6834 106.707 22.2929L100.343 15.9289C99.9526 15.5384 99.3195 15.5384 98.9289 15.9289C98.5384 16.3195 98.5384 16.9526 98.9289 17.3431L104.586 23L98.9289 28.6569C98.5384 29.0474 98.5384 29.6805 98.9289 30.0711C99.3195 30.4616 99.9526 30.4616 100.343 30.0711L106.707 23.7071ZM61 23V22H60V23H61ZM62 40V23H60V40H62ZM61 24H106V22H61V24Z" fill="#570DF8"/>
<path d="M63 121H62V122H63V121ZM89.7071 121.707C90.0976 121.317 90.0976 120.683 89.7071 120.293L83.3431 113.929C82.9526 113.538 82.3195 113.538 81.9289 113.929C81.5384 114.319 81.5384 114.953 81.9289 115.343L87.5858 121L81.9289 126.657C81.5384 127.047 81.5384 127.681 81.9289 128.071C82.3195 128.462 82.9526 128.462 83.3431 128.071L89.7071 121.707ZM62 103V121H64V103H62ZM63 122H89V120H63V122Z" fill="#570DF8"/>
<path d="M0 72C0 76.4183 3.58172 80 8 80C12.4183 80 16 76.4183 16 72C16 67.5817 12.4183 64 8 64C3.58172 64 0 67.5817 0 72ZM8 73.5H51V70.5H8V73.5Z" fill="black"/>
<path d="M66.224 39.088C73.52 39.088 79.824 40.464 85.136 43.216C90.512 45.904 94.608 49.776 97.424 54.832C100.304 59.888 101.744 65.84 101.744 72.688C101.744 79.536 100.304 85.488 97.424 90.544C94.608 95.536 90.512 99.376 85.136 102.064C79.824 104.688 73.52 106 66.224 106H45.392V39.088H66.224ZM66.224 98.8C74.864 98.8 81.456 96.528 86 91.984C90.544 87.376 92.816 80.944 92.816 72.688C92.816 64.368 90.512 57.872 85.904 53.2C81.36 48.528 74.8 46.192 66.224 46.192H54.128V98.8H66.224Z" fill="black"/>
<path d="M144.707 72.7071C145.098 72.3166 145.098 71.6834 144.707 71.2929L138.343 64.9289C137.953 64.5384 137.319 64.5384 136.929 64.9289C136.538 65.3195 136.538 65.9526 136.929 66.3431L142.586 72L136.929 77.6569C136.538 78.0474 136.538 78.6805 136.929 79.0711C137.319 79.4616 137.953 79.4616 138.343 79.0711L144.707 72.7071ZM101 73H144V71H101V73Z" fill="black"/>
<circle cx="8" cy="72" r="5" fill="#570DF8"/>
</svg>
