<svg width="157" height="72" viewBox="0 0 157 72" fill="none" xmlns="http://www.w3.org/2000/svg">
<path d="M42.3536 5.35355C42.5488 5.15829 42.5488 4.84171 42.3536 4.64645L39.1716 1.46447C38.9763 1.2692 38.6597 1.2692 38.4645 1.46447C38.2692 1.65973 38.2692 1.97631 38.4645 2.17157L41.2929 5L38.4645 7.82843C38.2692 8.02369 38.2692 8.34027 38.4645 8.53553C38.6597 8.7308 38.9763 8.7308 39.1716 8.53553L42.3536 5.35355ZM0 5.5L42 5.5V4.5L0 4.5L0 5.5Z" fill="black"/>
<rect x="0.32212" y="0.467289" width="111.504" height="76.0411" transform="matrix(1 0 -0.35576 0.934578 44.5743 0.0305712)" fill="#D9D9D9" stroke="black"/>
</svg>
