<svg width="113" height="164" viewBox="0 0 113 164" fill="none" xmlns="http://www.w3.org/2000/svg">
<rect x="0.646447" y="79.4541" width="65.6188" height="65.6188" transform="rotate(-45 0.646447 79.4541)" fill="#D9D9D9" stroke="black" stroke-width="0.5"/>
<line x1="93.5459" y1="78" x2="112.546" y2="78" stroke="black" stroke-width="2"/>
<line x1="111.546" y1="79" x2="111.546" y2="8" stroke="black" stroke-width="2"/>
<path d="M45.8388 7.29289C45.4483 7.68342 45.4483 8.31658 45.8388 8.70711L52.2028 15.0711C52.5933 15.4616 53.2265 15.4616 53.617 15.0711C54.0075 14.6805 54.0075 14.0474 53.617 13.6569L47.9602 8L53.617 2.34315C54.0075 1.95262 54.0075 1.31946 53.617 0.928932C53.2265 0.538408 52.5933 0.538408 52.2028 0.928932L45.8388 7.29289ZM112.546 7L46.5459 7V9L112.546 9V7Z" fill="black"/>
<path d="M45.8388 163.707C46.2294 164.098 46.8625 164.098 47.2531 163.707L53.617 157.343C54.0075 156.953 54.0075 156.319 53.617 155.929C53.2265 155.538 52.5933 155.538 52.2028 155.929L46.5459 161.586L40.8891 155.929C40.4986 155.538 39.8654 155.538 39.4749 155.929C39.0844 156.319 39.0844 156.953 39.4749 157.343L45.8388 163.707ZM45.5459 126V163H47.5459V126H45.5459Z" fill="black"/>
</svg>
